<svg id="Layer_1" data-name="Layer 1" xmlns="http://www.w3.org/2000/svg"><defs><style>.cls-1{fill:#e7305a;}.cls-2{fill:#fff;}</style></defs><title>hoxhunt_logo</title><path class="cls-1" d="M20.53,40.35l-.75-.43A39.29,39.29,0,0,1,0,6.56l0-.89.77-.44a39.58,39.58,0,0,1,39.52.11l.77.45,0,.89A39.29,39.29,0,0,1,21.28,39.92ZM3.05,7.39A36.29,36.29,0,0,0,20.53,36.88,36.34,36.34,0,0,0,38,7.5a36.59,36.59,0,0,0-35-.11Z"/><path class="cls-2" d="M16.69,25.71H10.8L15.94,9.8h5.9l-2.23,6.87h5.7L27.54,9.8h5.9L28.29,25.71h-5.9l2.23-6.94H18.93Z"/><path class="cls-2" d="M39,25.85a11.65,11.65,0,0,1-2.62-.26,5.16,5.16,0,0,1-1.77-.76,3,3,0,0,1-1-1.21A3.84,3.84,0,0,1,33.23,22a8.15,8.15,0,0,1,.51-2.62l1-3.25a11.51,11.51,0,0,1,1.27-2.69,7.58,7.58,0,0,1,1.91-2,8.55,8.55,0,0,1,2.68-1.29,12.83,12.83,0,0,1,3.58-.45h3.09a11.55,11.55,0,0,1,2.61.25,5,5,0,0,1,1.77.75,3,3,0,0,1,1,1.2A3.73,3.73,0,0,1,53,13.47a6.27,6.27,0,0,1-.13,1.26,9.42,9.42,0,0,1-.37,1.4l-1.05,3.25a11.49,11.49,0,0,1-1.24,2.67,7.46,7.46,0,0,1-1.92,2,8.52,8.52,0,0,1-2.69,1.3,12.47,12.47,0,0,1-3.57.46Zm2.24-2.23a4,4,0,0,0,1.31-.21,3.14,3.14,0,0,0,1.13-.65,4.25,4.25,0,0,0,.92-1.16,8,8,0,0,0,.73-1.73l1.3-4a8.85,8.85,0,0,0,.35-1.3,5.53,5.53,0,0,0,.11-1,1.51,1.51,0,0,0-.52-1.34A2.73,2.73,0,0,0,45,11.89a5.37,5.37,0,0,0-1.25.14,2.8,2.8,0,0,0-1,.55,4.07,4.07,0,0,0-.93,1.16,10.14,10.14,0,0,0-.85,2l-1.37,4.13a10.08,10.08,0,0,0-.29,1.1,5.47,5.47,0,0,0-.1.92,1.62,1.62,0,0,0,.51,1.33A2.3,2.3,0,0,0,41.2,23.62Z"/><path class="cls-2" d="M68.09,25.71H61.64l-2-5.47L53.5,25.71H50.23l8.69-7.63L56,9.8H62.4l1.65,4.75L69.27,9.8h3.29l-7.72,6.87Z"/><path class="cls-2" d="M75.93,25.71H70L75.17,9.8h5.91l-2.23,6.87h5.69L86.78,9.8h5.9L87.53,25.71h-5.9l2.23-6.94h-5.7Z"/><path class="cls-2" d="M99,20.21c-.17.49-.29.92-.38,1.28a4,4,0,0,0-.13,1,1.25,1.25,0,0,0,.14.66.83.83,0,0,0,.41.35,2.08,2.08,0,0,0,.67.14c.26,0,.57,0,.91,0a5,5,0,0,0,1.52-.2,2.37,2.37,0,0,0,1-.59,3.44,3.44,0,0,0,.67-1.06q.27-.64.57-1.56L107.76,9.8h5.91L110.3,20.28a10,10,0,0,1-1.25,2.62,6.8,6.8,0,0,1-1.69,1.73,6.27,6.27,0,0,1-2.07.94,9.83,9.83,0,0,1-2.41.28h-6a8.4,8.4,0,0,1-1.76-.17,3.71,3.71,0,0,1-1.33-.53,2.31,2.31,0,0,1-.84-.94,3,3,0,0,1-.29-1.42,7,7,0,0,1,.11-1.16,11.46,11.46,0,0,1,.36-1.35L96.5,9.8h5.9Z"/><path class="cls-2" d="M127.14,14.51a3.24,3.24,0,0,0,.21-.81c0-.23.06-.43.08-.6a1.22,1.22,0,0,0-.12-.58.79.79,0,0,0-.32-.31,1.42,1.42,0,0,0-.48-.14,3.65,3.65,0,0,0-.59,0h-3.25l-4.43,13.68h-5.89L117.48,9.8h11.85a5.92,5.92,0,0,1,3,.6,2.19,2.19,0,0,1,1,2,9.62,9.62,0,0,1-.58,2.92L129.4,25.71h-5.9Z"/><path class="cls-2" d="M136.86,9.8h14.83L151,12h-4.46l-4.43,13.68h-5.89L140.6,12h-4.46Z"/></svg>
