<svg xmlns="http://www.w3.org/2000/svg" viewBox="0 0 408.16 159.56"><defs><style>.cls-1{fill:#fff;}.cls-2{fill:#1c51f9;}.cls-3{fill:#191919;}.cls-4{fill:#fc427b;}</style></defs><title>summer_hunters_logo</title><g id="Layer_2" data-name="Layer 2"><g id="Layer_1-2" data-name="Layer 1"><path class="cls-1" d="M335.31,48.82l6.43-5.29L343.07,46a2,2,0,0,0,1.22,1,2,2,0,0,0,1.36-.1l.19-.1,18.94-10.88a2,2,0,0,0,1-1.26,2,2,0,0,0-.26-1.55l-6.88-10.92a2,2,0,0,0-1.65-.93,2,2,0,0,0-1.7.86L345.09,36.8l-1.23-1.95a2,2,0,0,0-3.54.26l-5.79,13.12a.5.5,0,0,0,.78.59Z"/><path class="cls-1" d="M50.89,35.91,69.82,46.79l.2.1a2,2,0,0,0,1.35.1,2,2,0,0,0,1.22-1l1.33-2.48,6.44,5.29a.5.5,0,0,0,.62,0,.51.51,0,0,0,.15-.6L75.34,35.11a2,2,0,0,0-3.53-.26L70.58,36.8,60.42,22.11a2,2,0,0,0-1.7-.86,2,2,0,0,0-1.65.93L50.19,33.1a1.93,1.93,0,0,0-.25,1.55A2,2,0,0,0,50.89,35.91Z"/><path class="cls-2" d="M407.23,87.72a30.09,30.09,0,0,0-8-15.1c-.66-.66-1.35-1.29-2.05-1.9.79-1.24,1.58-2.47,2.35-3.7l2.78-4.39a11.1,11.1,0,0,0,1.37-8.43l0-.12a10.9,10.9,0,0,0-1.8-3.8l-.15-.2a10.9,10.9,0,0,0-3.14-2.78l-4.44-2.61a50.32,50.32,0,0,0-17.57-6.33l-1.49-.22a9.65,9.65,0,0,0,.33-1.08,12.06,12.06,0,0,0-1.5-9.3l-6.88-10.91a11.94,11.94,0,0,0-9.89-5.6h-.26A12,12,0,0,0,347,16.43l-5.18,7.49a5.25,5.25,0,0,0-.56,0,12,12,0,0,0-8,3.94,24.09,24.09,0,0,0-1.46-2,26.57,26.57,0,0,0-9.9-7.71,29.44,29.44,0,0,0-10.6-2.6c-.85-.05-1.72-.08-2.57-.08a40.91,40.91,0,0,0-5.64.39c-3.75.5-7.65,1-11.89,1.49h-1.1l-.45,0-7.08.75c-7,.74-14.11,1.38-21,1.9H261l-.33,0-6.79.44c-4.78.32-9.62.58-14.38.79l-5.16.23h0l-5.76.16c-4.46.13-9.16.21-14,.25l-3.28,0h-3.73c-4.81,0-9.66-.08-14.41-.19l-5-.12h-.59l-.28,0-5-.2c-4.8-.19-9.5-.42-13.95-.69L161,20.3h-.27c-3.27-.23-6.48-.48-9.56-.74l-4.7-.4-3.71-.35c-3.23-.31-6.71-.67-10.64-1.11l-6.9-.77-.7-.06H124a11.29,11.29,0,0,0-1.94.17,35.79,35.79,0,0,0-8.08-2.1,37.67,37.67,0,0,0-5.13-.34,36.32,36.32,0,0,0-3.82.19,30.82,30.82,0,0,0-10.62,3,28.35,28.35,0,0,0-9.49,7.45,25.92,25.92,0,0,0-2.18,3A12,12,0,0,0,74.39,24l-.56,0-5.2-7.52a12,12,0,0,0-9.86-5.15h-.25a12,12,0,0,0-9.91,5.6l-6.87,10.9A12.06,12.06,0,0,0,40.2,36.9q-3.69-.74-7.19-1.47l-4.82-1a11.4,11.4,0,0,0-2.26-.23A11,11,0,0,0,15.19,42.8L.25,110.08a11,11,0,0,0,4.62,11.43l25.49,17.12a10.6,10.6,0,0,0,3.82,1.6l1,.2c6.27,1.3,12,2.44,17.51,3.47l4.88.91a11,11,0,0,0,2,.19,10.67,10.67,0,0,0,2.33-.26,10.89,10.89,0,0,0,3.9,1.53l1.17.21c5.73,1,11.65,1.94,17.59,2.85l4.87.74a11.62,11.62,0,0,0,1.67.12A11,11,0,0,0,96.12,149c1.06.65,2.16,1.26,3.3,1.82a45.78,45.78,0,0,0,13.68,4.12c.67.11,1.35.19,2.1.28,1.09.12,2.17.21,3.21.27s2.08.09,3.08.09a47.59,47.59,0,0,0,5-.26,42,42,0,0,0,5-.84,44,44,0,0,0,4.23-1.22,10.92,10.92,0,0,0,7.38,3.64l2.44.19c5.44.41,11,.77,17.05,1.11l4.9.27c.28,0,.57,0,.86,0a11.12,11.12,0,0,0,2.76-.36,11.1,11.1,0,0,0,3.26.64l2.56.1c5.95.24,12.12.43,18.33.56l5.19.1c.3,0,.6,0,.9,0h5c6.16,0,12.23-.06,18-.17l4.91-.1a11.94,11.94,0,0,0,2.07-.24l4.08-.16c12.56-.5,25.34-1.27,38-2.29l2.38-.19a11.63,11.63,0,0,0,2.12-.38l.84-.08c5.72-.51,11.54-1.09,17.32-1.72l1.81-.19a10.86,10.86,0,0,0,2.91-.76,10.84,10.84,0,0,0,1.8.15,10.19,10.19,0,0,0,1.35-.08l2.8-.34c6.64-.8,13.52-1.7,20.43-2.69l1.67-.24a11.08,11.08,0,0,0,4.65-1.83c1.61.14,3.23.2,4.86.2h0a60.08,60.08,0,0,0,10.42-.91,50,50,0,0,0,13.56-4.44c1.14-.57,2.25-1.18,3.3-1.81l24.41-14.78a41.5,41.5,0,0,0,8.58-7,36.22,36.22,0,0,0,8.05-13.89A34.34,34.34,0,0,0,407.23,87.72Z"/><path class="cls-1" d="M397.47,89.86a20.25,20.25,0,0,0-5.29-10.17,25.68,25.68,0,0,0-8-5.44l-.95-.39c2.69-4.09,5.34-8.18,7.87-12.18l2.76-4.36a1,1,0,0,0,.12-.78,1,1,0,0,0-.17-.36,1.2,1.2,0,0,0-.29-.26l-4.45-2.62A40.54,40.54,0,0,0,375,48.23a42.08,42.08,0,0,0-14.34,0,45.62,45.62,0,0,0-9.85,3,30.86,30.86,0,0,0-3.62,1.88l-.16.08L334.6,60.72l-2.76-3c-2-2.2-4-4.39-6-6.57.17-.32.34-.64.49-1a16.74,16.74,0,0,0,1.22-9.72A17.75,17.75,0,0,0,324,32.14a16.82,16.82,0,0,0-6.25-4.88,19.84,19.84,0,0,0-7.09-1.72,31,31,0,0,0-6.25.24c-4.23.57-8.65,1.12-13.5,1.68a.55.55,0,0,0-.38-.11l-6.92.73c-7.4.78-14.77,1.45-22,2a.37.37,0,0,0-.18,0l-6.94.45c-4.84.32-9.75.59-14.6.8l-5.26.23a.51.51,0,0,0-.43.27.59.59,0,0,0-.44-.25l-5,.14c-4.5.13-9.27.21-14.16.25l-3.37,0h-3.73c-4.87,0-9.79-.08-14.62-.19l-5.22-.12a.5.5,0,0,1-.86,0l-5-.2c-4.87-.19-9.63-.42-14.15-.69l-6.94-.42a.37.37,0,0,0-.15,0c-3.51-.24-7-.51-10.27-.79l-4.77-.4-3.76-.36c-3.28-.31-6.81-.68-10.79-1.12l-6.91-.77a.5.5,0,0,0-.55.44l-.18,1.53a20.74,20.74,0,0,0-2-1.14,26.76,26.76,0,0,0-8.76-2.85,28.13,28.13,0,0,0-6.61-.11,21.11,21.11,0,0,0-7.21,2,18.47,18.47,0,0,0-6.19,4.86,17.3,17.3,0,0,0-3.71,8.43,16.2,16.2,0,0,0,.26,7,15.67,15.67,0,0,0,1.27,3.21l-3.57,2.69-5,3.72-4.47-3a1.07,1.07,0,0,0-.41-.15l-1.11-.17c-5.08-.76-10.34-1.61-16.07-2.59L55,49.89a1,1,0,0,0-1.16.8l-.3,1.61L48.2,48.72a1,1,0,0,0-.37-.16l-1-.19c-5.49-1-10.83-2.1-15.86-3.15l-4.82-1A1,1,0,0,0,25,45L10,112.16a1,1,0,0,0,.42,1l25.43,17.08a1.19,1.19,0,0,0,.35.15l1,.2c6.17,1.28,11.84,2.41,17.31,3.43l4.85.91a1,1,0,0,0,1.16-.79l.43-2.11,6.25,4.2a1.11,1.11,0,0,0,.39.16l1.05.18c5.64,1,11.49,1.92,17.4,2.82l4.88.74a1,1,0,0,0,1.13-.82l1-6.15,3.36,3.37a26,26,0,0,0,3.46,2.91,31.66,31.66,0,0,0,4,2.34,35.85,35.85,0,0,0,10.72,3.2l1.71.22c.92.1,1.82.17,2.67.22a39,39,0,0,0,6.44-.13,33.81,33.81,0,0,0,3.82-.63,28.57,28.57,0,0,0,9.89-4.26l4,6a1,1,0,0,0,.76.44l2.44.18c5.37.41,10.88.77,16.85,1.1l5.09.29a.93.93,0,0,0,.76-.26,1,1,0,0,0,.32-.71l.19-5.93,4.48,6.75a1,1,0,0,0,.79.45l2.56.1c5.84.23,11.94.42,18.14.55l5,.1a1,1,0,0,1,.9,0h5c6.1,0,12.1-.06,17.83-.17l4.91-.1a1,1,0,0,0,.63-.25,1.36,1.36,0,0,0,.36.05h0l5-.2c12.42-.49,25.07-1.25,37.58-2.26l2.42-.19a1.08,1.08,0,0,0,.58-.24l2.26-.21c5.68-.51,11.44-1.08,17.12-1.7l1.76-.19a1,1,0,0,0,.6-.29l2.86-2.87,1.6,2.1a1,1,0,0,0,.91.38l2.84-.34c6.59-.79,13.39-1.69,20.2-2.66l1.65-.24a1,1,0,0,0,.57-.29l2.13-2.14a49.49,49.49,0,0,0,16.95-.06,40.53,40.53,0,0,0,10.84-3.55c.88-.44,1.74-.91,2.56-1.41L384.84,118a31.15,31.15,0,0,0,6.48-5.29,26.29,26.29,0,0,0,5.83-10A24.6,24.6,0,0,0,397.47,89.86Z"/><path class="cls-1" d="M365.48,33.1,358.6,22.18a2,2,0,0,0-1.66-.93,2,2,0,0,0-1.7.86L345.09,36.8l-1.23-1.95a2,2,0,0,0-3.54.26l-5.79,13.12a.5.5,0,0,0,.78.59l6.43-5.29L343.07,46a2,2,0,0,0,1.22,1,2,2,0,0,0,1.36-.1l.19-.1,18.94-10.88a2,2,0,0,0,.7-2.81Z"/><path class="cls-1" d="M50.19,33.1l6.88-10.92a2,2,0,0,1,1.65-.93,2,2,0,0,1,1.7.86L70.58,36.8l1.23-1.95a2,2,0,0,1,3.53.26l5.79,13.12a.5.5,0,0,1-.77.59l-6.44-5.29L72.59,46a2,2,0,0,1-1.22,1,2,2,0,0,1-1.35-.1l-.2-.1L50.89,35.91a2,2,0,0,1-.7-2.81Z"/><path class="cls-3" d="M397.47,89.86a20.25,20.25,0,0,0-5.29-10.17,25.45,25.45,0,0,0-8-5.44l-.95-.39c2.7-4.09,5.34-8.18,7.87-12.18l2.76-4.36a1,1,0,0,0,.12-.78,1,1,0,0,0-.17-.36,1.2,1.2,0,0,0-.29-.26l-4.45-2.62A40.46,40.46,0,0,0,375,48.23a42.08,42.08,0,0,0-14.34,0,45.62,45.62,0,0,0-9.85,3,30.86,30.86,0,0,0-3.62,1.88l-.16.08-12.4,7.51-2.76-3q-3.06-3.3-6-6.57c.17-.32.34-.64.49-1a16.74,16.74,0,0,0,1.22-9.72A17.75,17.75,0,0,0,324,32.14a16.82,16.82,0,0,0-6.25-4.88,19.84,19.84,0,0,0-7.09-1.72,31,31,0,0,0-6.25.24c-4.23.57-8.65,1.12-13.5,1.68a.54.54,0,0,0-.38-.11l-6.92.73c-7.4.78-14.77,1.45-22,2a.37.37,0,0,0-.18,0l-6.94.45c-4.84.32-9.75.59-14.6.8l-5.26.23a.49.49,0,0,0-.42.27.61.61,0,0,0-.45-.25l-5,.14c-4.5.13-9.26.21-14.16.25l-3.37,0h-3.73c-4.87,0-9.79-.08-14.62-.19l-5.22-.12a.48.48,0,0,0-.43.23.53.53,0,0,0-.42-.26l-5-.2c-4.88-.19-9.64-.42-14.16-.69l-6.94-.42a.37.37,0,0,0-.15,0c-3.51-.24-7-.51-10.27-.79l-4.77-.4-3.76-.36c-3.28-.31-6.81-.68-10.79-1.12l-6.91-.77a.5.5,0,0,0-.55.44l-.18,1.53a20.74,20.74,0,0,0-2-1.14,26.76,26.76,0,0,0-8.76-2.85,28.13,28.13,0,0,0-6.61-.11,21,21,0,0,0-7.2,2,18.41,18.41,0,0,0-6.2,4.86,17.29,17.29,0,0,0-3.7,8.43,16.21,16.21,0,0,0,.25,7,15.7,15.7,0,0,0,1.28,3.21l-3.58,2.69-5,3.72-4.47-3a1,1,0,0,0-.41-.15l-1.11-.17c-5.08-.76-10.33-1.61-16.07-2.59L55,49.89a1,1,0,0,0-1.16.8l-.29,1.61L48.2,48.72a1,1,0,0,0-.37-.16l-1-.19c-5.49-1-10.83-2.1-15.86-3.15l-4.82-1A1,1,0,0,0,25,45L10,112.16a1,1,0,0,0,.42,1l25.42,17.08a1.19,1.19,0,0,0,.35.15l1,.2c6.18,1.28,11.84,2.41,17.31,3.43l4.85.91a1,1,0,0,0,1.16-.79l.43-2.11,6.25,4.2a1.11,1.11,0,0,0,.39.16l1.05.18c5.64,1,11.49,1.92,17.4,2.82l4.88.74a1,1,0,0,0,1.13-.82l1-6.15,3.36,3.37a26.07,26.07,0,0,0,3.47,2.91,30.84,30.84,0,0,0,4,2.34,35.94,35.94,0,0,0,10.72,3.2l1.71.22c.92.1,1.82.17,2.67.22a39,39,0,0,0,6.44-.13,33.44,33.44,0,0,0,3.82-.63,28.49,28.49,0,0,0,9.89-4.26l4,6a1,1,0,0,0,.76.44l2.43.18c5.37.41,10.88.77,16.85,1.1l5.09.29a.93.93,0,0,0,.76-.26,1,1,0,0,0,.32-.71l.19-5.93,4.48,6.75a1,1,0,0,0,.79.45l2.56.1c5.84.23,11.95.42,18.14.55l5,.1a1,1,0,0,1,.91,0h5c6.09,0,12.09-.06,17.83-.17l4.9-.1a1,1,0,0,0,.63-.25,1.38,1.38,0,0,0,.37.05h0l5-.2c12.42-.49,25.07-1.25,37.58-2.26l2.42-.19a1.08,1.08,0,0,0,.58-.24l2.26-.21c5.68-.51,11.45-1.08,17.13-1.7l1.76-.19a1.09,1.09,0,0,0,.6-.29l2.85-2.87,1.6,2.1a1,1,0,0,0,.91.38l2.84-.34c6.59-.79,13.39-1.69,20.2-2.66l1.66-.24a1,1,0,0,0,.56-.29l2.13-2.14a49.49,49.49,0,0,0,16.95-.06,40.53,40.53,0,0,0,10.84-3.55c.88-.44,1.74-.91,2.56-1.41L384.84,118a31.15,31.15,0,0,0,6.48-5.29,26,26,0,0,0,5.83-10A24.6,24.6,0,0,0,397.47,89.86Z"/><path class="cls-4" d="M29.43,51.09q8,1.66,16,3.18l-4,20.08c4.47.85,8.95,1.65,13.43,2.43q1.86-10.08,3.74-20.15Q66.6,58,74.7,59.25q-5,29.82-9.87,59.63-8.65-1.32-17.28-2.81l4.19-22.58Q44.89,92.32,38,91q-2.26,11.25-4.54,22.51c-5.74-1.07-11.47-2.22-17.19-3.41Q22.87,80.61,29.43,51.09Z"/><path class="cls-4" d="M85.42,72.16Q93.69,73.32,102,74.3q-1.81,13.77-3.61,27.52a7.68,7.68,0,0,0,1.07,5.62A6.33,6.33,0,0,0,104.2,110a10.11,10.11,0,0,0,1.08.07,6.19,6.19,0,0,0,4.19-1.45,7.92,7.92,0,0,0,2.4-5.24q1.59-13.78,3.17-27.56,8.25.85,16.53,1.56l-2.82,29.38a20.73,20.73,0,0,1-2.34,7.91,17.65,17.65,0,0,1-5.28,6,22.18,22.18,0,0,1-8.14,3.56,28.8,28.8,0,0,1-6.42.68,39,39,0,0,1-4.48-.26,31.19,31.19,0,0,1-10.42-2.83,20.76,20.76,0,0,1-6.92-5.25,16.69,16.69,0,0,1-3.49-7,21.7,21.7,0,0,1-.25-8.18Q83.23,86.75,85.42,72.16Z"/><path class="cls-4" d="M140.7,78c5.53.42,11.07.77,16.61,1.08q6.31,12.69,13,25.27h.29q.2-12.32.42-24.64,7.94.31,15.86.48l-1.35,48.55q-9-.19-18-.55-6.72-11.88-13.05-23.85h-.29c-.26,7.72-.51,15.46-.75,23.18-5.58-.31-11.17-.67-16.74-1.09Q138.7,102.26,140.7,78Z"/><path class="cls-4" d="M367.33,53.61a39.13,39.13,0,0,1,6.37.54,34.34,34.34,0,0,1,12,4.32Q380.95,66,376,73.53a13.85,13.85,0,0,0-5.78-2.83,16.75,16.75,0,0,0-3.72-.47,11,11,0,0,0-1.87.16,8.55,8.55,0,0,0-3.44,1.26,2.13,2.13,0,0,0-1,2.28A2.24,2.24,0,0,0,362,75.69a38.49,38.49,0,0,0,4.88.85c2.29.27,4.73.63,7.3,1.06a30.85,30.85,0,0,1,7.35,2.16,19.59,19.59,0,0,1,6.14,4.17,14.38,14.38,0,0,1,3.67,7.22,18.65,18.65,0,0,1-.19,9.71,20.16,20.16,0,0,1-4.49,7.76,25.66,25.66,0,0,1-7.5,5.51,33.73,33.73,0,0,1-9.21,3,43.19,43.19,0,0,1-7.66.68,41.76,41.76,0,0,1-7.47-.66,43.93,43.93,0,0,1-6.95-1.83,31.57,31.57,0,0,1-6-2.82q5.38-7.53,10.57-15.14a20.63,20.63,0,0,0,6.53,3.06,17.53,17.53,0,0,0,4.91.72,16.86,16.86,0,0,0,2.92-.26,8.3,8.3,0,0,0,3.08-1.16,2.16,2.16,0,0,0,1-2.43,2.27,2.27,0,0,0-.75-1.33,5.87,5.87,0,0,0-1.94-.9,27.57,27.57,0,0,0-3.62-.79c-1.51-.25-3.41-.53-5.67-.83a45.84,45.84,0,0,1-6.43-1.4,21,21,0,0,1-5.66-2.59,14.89,14.89,0,0,1-4.3-4.29,16.23,16.23,0,0,1-2.41-6.56,18.26,18.26,0,0,1,.74-9.75,20.25,20.25,0,0,1,4.76-7.24,24.68,24.68,0,0,1,7.34-4.87,39.15,39.15,0,0,1,8.53-2.62A32.73,32.73,0,0,1,367.33,53.61Z"/><path class="cls-4" d="M319.11,122.49q-6.12-8-12.05-16.1l-.51,0q1,8.64,2.06,17.25-8.5.93-17,1.69-2.42-24.19-4.85-48.37,10.63-.95,21.25-2.16a38.06,38.06,0,0,1,4.4-.26c1,0,1.93,0,2.9.12a18.91,18.91,0,0,1,6.75,1.7,14.2,14.2,0,0,1,5.28,4.21A15.26,15.26,0,0,1,330.21,88,13.52,13.52,0,0,1,329.1,96a14.29,14.29,0,0,1-5.82,6.07q7.8,8.94,15.89,17.73C332.5,120.8,325.8,121.69,319.11,122.49Zm-14-26.67,3.32-.37a13.31,13.31,0,0,0,1.86-.35,5.83,5.83,0,0,0,1.84-.79,4.3,4.3,0,0,0,1.32-1.4,3.3,3.3,0,0,0,.33-2.15,3.68,3.68,0,0,0-.76-2,3.14,3.14,0,0,0-1.4-1,5.29,5.29,0,0,0-1.74-.29c-.62,0-1.19,0-1.7.09l-4,.45.93,7.77"/><path class="cls-4" d="M276.07,77.71q.6,6.78,1.18,13.54-9.36.75-18.72,1.28c.09,1.4.18,2.8.27,4.18q8.85-.51,17.67-1.2l1.09,12.65q-9,.7-17.93,1.22c.1,1.51.21,3,.31,4.52q10.21-.6,20.42-1.42.58,6.78,1.19,13.54-18.63,1.5-37.34,2.24-1.12-24.25-2.27-48.52Q259,79.08,276.07,77.71Z"/><path class="cls-4" d="M235.06,80.94c.15,4.59.32,9.18.47,13.77-4.15.15-8.3.25-12.45.33q.34,17.4.68,34.77Q214.9,130,206,130q0-17.38,0-34.77-6.23,0-12.44-.09.09-6.9.19-13.79,6.25.09,12.51.09Q220.68,81.42,235.06,80.94Z"/><path class="cls-1" d="M284.42,35.54c.33,3,.67,6,1,9q-6.09.66-12.2,1.19c.09.92.17,1.85.26,2.77Q279.24,48,285,47.36q.48,4.2.94,8.4-5.82.62-11.65,1.13c.09,1,.19,2,.29,3q6.63-.6,13.25-1.3l1,9q-12.06,1.29-24.18,2.19l-2.58-32.22Q273.27,36.73,284.42,35.54Z"/><path class="cls-1" d="M255,38q1.16,16.11,2.29,32.23-5.56.36-11.15.63-.33-9.07-.69-18.15l-.27,0q-2.59,9.22-5.35,18.46-4,.16-8.09.29-3.44-9-6.75-18.08h-.22q.5,9.1,1,18.23c-3.57.08-7.13.12-10.69.15q-.21-16.15-.4-32.29,7.16-.06,14.31-.25,3.26,8.59,6.62,17.18h.24q2.25-8.77,4.38-17.57Q247.63,38.47,255,38Z"/><path class="cls-1" d="M130.14,35.09c3.63.4,7.26.79,10.9,1.14q-.93,9.17-1.89,18.34a5.24,5.24,0,0,0,.79,3.72,4.17,4.17,0,0,0,3.17,1.59l.58,0a4,4,0,0,0,2.83-1A5.22,5.22,0,0,0,148,55.36q.84-9.18,1.66-18.36c3.62.3,7.25.58,10.87.83q-.72,9.78-1.45,19.57a14.05,14.05,0,0,1-1.41,5.28,11.94,11.94,0,0,1-3.37,4.08,14.45,14.45,0,0,1-5.25,2.48,18.78,18.78,0,0,1-4.71.56c-.76,0-1.55,0-2.37-.11A20.53,20.53,0,0,1,135.14,68a13.69,13.69,0,0,1-4.59-3.37,11.08,11.08,0,0,1-2.41-4.6,14.64,14.64,0,0,1-.31-5.43Z"/><path class="cls-1" d="M167.2,38.2q7.16.44,14.31.71,2.55,8.79,5.26,17.58H187q2.94-8.61,5.74-17.24c4.94.11,9.86.18,14.79.19q-.12,16.13-.24,32.29c-3.73,0-7.45,0-11.17-.11q.38-9.07.74-18.14l-.28-.05q-3.32,9-6.77,18.06c-2.69-.07-5.39-.15-8.08-.26Q179,62,176.41,52.76h-.23Q176,61.87,175.76,71q-5.34-.24-10.68-.57Q166.15,54.32,167.2,38.2Z"/><path class="cls-1" d="M313.33,64.76q-4.08-5.27-8.07-10.57l-.32,0,1.59,11.45q-5.5.7-11,1.34-2-16-4-32.08,7-.8,13.9-1.73a24.18,24.18,0,0,1,3.3-.23c.49,0,1,0,1.48.05a12.47,12.47,0,0,1,4.45,1.06,9.3,9.3,0,0,1,3.5,2.75,10.38,10.38,0,0,1,2,4.85,9.3,9.3,0,0,1-.64,5.39,9.41,9.41,0,0,1-3.73,4.09Q321,57,326.34,62.82C322,63.5,317.67,64.16,313.33,64.76Zm-9.47-17.57L306,46.9a7.92,7.92,0,0,0,1.21-.25,3.65,3.65,0,0,0,1.18-.55,2.77,2.77,0,0,0,.85-1,2.22,2.22,0,0,0,.18-1.44,2.5,2.5,0,0,0-.51-1.3,2.2,2.2,0,0,0-.94-.64,3.32,3.32,0,0,0-1.06-.16h-.08c-.4,0-.77,0-1.11.08l-2.61.34.72,5.16"/><path class="cls-1" d="M108.89,32.1a20.22,20.22,0,0,1,2.71.18,19.36,19.36,0,0,1,6.32,2.07,17.83,17.83,0,0,1,5.37,4.23q-3.84,3-7.72,6a7.88,7.88,0,0,0-5.24-3.49,6.29,6.29,0,0,0-.93-.07,3.45,3.45,0,0,0-1.06.14,1.17,1.17,0,0,0-.9,1,1.15,1.15,0,0,0,.6,1.19,19.92,19.92,0,0,0,2.34,1.24c1.12.52,2.3,1.11,3.53,1.76a15.72,15.72,0,0,1,3.35,2.34,10.26,10.26,0,0,1,2.36,3.15,7.66,7.66,0,0,1,.54,4.3,10.35,10.35,0,0,1-1.86,4.91,11.25,11.25,0,0,1-3.65,3.18,13.92,13.92,0,0,1-4.75,1.56,18.44,18.44,0,0,1-2.67.19,18.77,18.77,0,0,1-2.48-.16,23,23,0,0,1-4-.92,22.48,22.48,0,0,1-6.85-3.59,16.9,16.9,0,0,1-2.57-2.39c2.68-2,5.35-4,8-6.06a10.73,10.73,0,0,0,2.79,2.62A9,9,0,0,0,106,57a4.31,4.31,0,0,0,.71,0,4.11,4.11,0,0,0,1.06-.13,1.17,1.17,0,0,0,.94-1.06,1.19,1.19,0,0,0-.14-.82,3.1,3.1,0,0,0-.82-.78,15.28,15.28,0,0,0-1.7-1c-.73-.38-1.64-.82-2.74-1.35a23.66,23.66,0,0,1-3-1.77,10.83,10.83,0,0,1-2.43-2.23A7.91,7.91,0,0,1,96.39,45a8.9,8.9,0,0,1-.09-3.74,10.08,10.08,0,0,1,2.07-4.87,11.17,11.17,0,0,1,3.72-2.92,13.46,13.46,0,0,1,4.64-1.29A19.78,19.78,0,0,1,108.89,32.1Z"/><path class="cls-1" d="M167.47.49,163.78.32a.35.35,0,0,0-.22.08.35.35,0,0,0-.1.21l-.16,3.67-2.79-.12.17-3.67a.31.31,0,0,0-.3-.32L156.7,0a.33.33,0,0,0-.32.29l-.51,11.22a.31.31,0,0,0,.29.33l3.68.17a.36.36,0,0,0,.23-.09.32.32,0,0,0,.1-.21l.17-3.83,2.79.13L163,11.84a.32.32,0,0,0,.3.32l3.68.17h0a.31.31,0,0,0,.31-.3L167.76.81A.3.3,0,0,0,167.47.49Z"/><path class="cls-1" d="M181.18,1.49a6.9,6.9,0,0,0-3.29-.9,7.13,7.13,0,0,0-3.34.69,6,6,0,0,0-2.39,2.14,6.22,6.22,0,0,0-.94,3.15A6.31,6.31,0,0,0,172,9.78a6,6,0,0,0,2.25,2.28,7,7,0,0,0,3.29.89h.26a6.83,6.83,0,0,0,3.08-.69,5.9,5.9,0,0,0,2.39-2.14A6,6,0,0,0,184.17,7a6.07,6.07,0,0,0-.74-3.21A5.87,5.87,0,0,0,181.18,1.49Zm-5.29,3.88a2.13,2.13,0,0,1,.8-.83,2,2,0,0,1,1-.27h.08a2.08,2.08,0,0,1,1.07.34,2.15,2.15,0,0,1,.74.88,2.89,2.89,0,0,1,.25,1.35,2.87,2.87,0,0,1-.34,1.33,2.07,2.07,0,0,1-.79.84h0a2.13,2.13,0,0,1-2.16-.07,2.21,2.21,0,0,1-.74-.88,2.79,2.79,0,0,1-.25-1.35A2.91,2.91,0,0,1,175.89,5.37Z"/><path class="cls-1" d="M195.34,7l3.77-5.18a.33.33,0,0,0,0-.32.3.3,0,0,0-.27-.17l-4-.07a.32.32,0,0,0-.27.14L193,3.79l-1.55-2.45a.32.32,0,0,0-.25-.15l-4.14-.07a.29.29,0,0,0-.28.16.33.33,0,0,0,0,.32l3.6,5.46-3.93,5.42a.29.29,0,0,0,0,.31.32.32,0,0,0,.27.18l4.2.07a.36.36,0,0,0,.27-.14l1.63-2.55L194.41,13a.3.3,0,0,0,.26.15l4.21.07h0a.32.32,0,0,0,.27-.16.31.31,0,0,0,0-.32Z"/><path class="cls-1" d="M213.24,1.42l-3.68,0h0a.31.31,0,0,0-.31.31l0,3.67h-2.79l0-3.67a.31.31,0,0,0-.31-.31l-3.68,0h0a.31.31,0,0,0-.31.31l-.06,11.23a.31.31,0,0,0,.31.31l3.69,0h0a.32.32,0,0,0,.31-.31V9.1h2.79l0,3.83a.28.28,0,0,0,.09.22.31.31,0,0,0,.22.09l3.69,0h0a.27.27,0,0,0,.21-.09.28.28,0,0,0,.1-.21l.05-11.24a.31.31,0,0,0-.09-.22A.36.36,0,0,0,213.24,1.42Z"/><path class="cls-1" d="M228.74,1.4a.3.3,0,0,0-.21-.08h0l-3.62,0a.31.31,0,0,0-.31.31l.06,6.07a2.71,2.71,0,0,1-.35,1.61,1.15,1.15,0,0,1-1,.45h0a1.14,1.14,0,0,1-1-.43,2.66,2.66,0,0,1-.38-1.61l-.06-6.06a.28.28,0,0,0-.09-.22.31.31,0,0,0-.22-.09h0l-3.69,0a.3.3,0,0,0-.3.31l.05,6.18A5.62,5.62,0,0,0,219.16,12a5.59,5.59,0,0,0,4.07,1.45h.08A5.66,5.66,0,0,0,227.43,12a5.56,5.56,0,0,0,1.46-4.15l0-6.18A.37.37,0,0,0,228.74,1.4Z"/><path class="cls-1" d="M244.15,1.07a.34.34,0,0,0-.22-.08l-3.59.08a.32.32,0,0,0-.3.32l.1,4.23-3.71-4.34a.32.32,0,0,0-.24-.11l-3,.07a.31.31,0,0,0-.3.32l.26,11.23a.28.28,0,0,0,.1.21.27.27,0,0,0,.21.09h0L237,13a.3.3,0,0,0,.3-.31l-.1-4.24,3.71,4.35a.35.35,0,0,0,.24.11l3-.08a.3.3,0,0,0,.3-.31l-.26-11.23A.32.32,0,0,0,244.15,1.07Z"/><path class="cls-1" d="M258.18.79a.28.28,0,0,0-.1-.21.27.27,0,0,0-.21-.09h0L247.78.87a.32.32,0,0,0-.22.1.35.35,0,0,0-.08.22l.11,2.93a.32.32,0,0,0,.31.3h0l2.89-.11.3,8a.31.31,0,0,0,.31.3h0l3.68-.13a.37.37,0,0,0,.22-.1.36.36,0,0,0,.08-.23l-.3-8L258,4a.3.3,0,0,0,.3-.31Z"/></g></g></svg>